<svg width="1440" height="998" viewBox="0 0 1440 998" fill="none" xmlns="http://www.w3.org/2000/svg">
<g clip-path="url(#clip0_326_262)">
<rect width="1440" height="998" fill="#262626"/>
<path d="M-52 51.3573H650.717C659.666 49.7782 677.563 52.6206 677.563 76.6236C677.563 100.626 677.563 113.996 677.563 117.681C677.563 121.366 673.773 128.735 658.613 128.735C643.453 128.735 362.787 128.735 224.349 128.735H44.3275C41.1692 129.261 34.8527 128.419 34.8527 120.839C34.8527 115.786 34.8527 81.887 34.8527 65.5693C35.3791 63.9901 37.6951 60.8318 42.7484 60.8318C47.8016 60.8318 143.813 60.8318 191.188 60.8318H320.677C322.782 60.8318 326.994 62.411 326.994 68.7275C326.994 75.0441 328.046 164.002 328.573 207.692V433.509C328.573 435.614 326.994 439.825 320.677 439.825C314.36 439.825 162.237 439.825 86.9643 439.825C84.3324 439.825 79.0686 438.562 79.0686 433.509C79.0686 428.456 79.0686 260.856 79.0686 177.688C79.595 175.583 82.2269 171.372 88.5434 171.372C94.86 171.372 240.667 171.372 312.781 171.372H625.451V215.588H360.155V250.329H625.451V288.228H356.997V324.548H625.451V360.868H360.155V397.189H574.918V491.937H53.8024C47.4858 491.937 34.8527 487.831 34.8527 471.408C34.8527 454.985 34.8527 246.644 34.8527 144.526C35.3791 142.421 37.6951 138.21 42.7484 138.21C47.8016 138.21 458.588 138.21 663.35 138.21C667.561 138.21 675.983 140.105 675.983 147.685C675.983 155.264 677.036 369.817 677.563 476.146C677.563 481.409 675.036 491.937 664.929 491.937C654.823 491.937 611.239 491.937 590.71 491.937C589.131 491.937 585.972 492.884 585.972 496.674C585.972 500.464 585.972 503.517 585.972 504.57C585.972 505.623 586.92 507.728 590.71 507.728C594.5 507.728 679.668 507.728 721.778 507.728" stroke="#353232" stroke-opacity="0.8" stroke-width="6"/>
<circle cx="86.9634" cy="98.3742" r="19.108" stroke="#353232" stroke-opacity="0.8" stroke-width="6"/>
<circle cx="146.971" cy="98.3742" r="19.108" stroke="#353232" stroke-opacity="0.8" stroke-width="6"/>
<circle cx="203.819" cy="98.3742" r="19.108" stroke="#353232" stroke-opacity="0.8" stroke-width="6"/>
<path d="M124.705 339.07L124.705 261.938L191.504 300.504L124.705 339.07Z" stroke="#353232" stroke-opacity="0.8" stroke-width="6"/>
<path d="M209.979 339.07L209.979 261.938L276.777 300.504L209.979 339.07Z" stroke="#353232" stroke-opacity="0.8" stroke-width="6"/>
<path d="M631.621 507.812H1334.34C1343.29 506.233 1361.18 509.075 1361.18 533.078C1361.18 557.081 1361.18 570.451 1361.18 574.135C1361.18 577.82 1357.39 585.189 1342.23 585.189C1327.07 585.189 1046.41 585.189 907.971 585.189H727.949C724.79 585.716 718.474 584.873 718.474 577.294C718.474 572.24 718.474 538.341 718.474 522.024C719 520.445 721.316 517.286 726.369 517.286C731.423 517.286 827.434 517.286 874.809 517.286H1004.3C1006.4 517.286 1010.61 518.865 1010.61 525.182C1010.61 531.499 1011.67 620.457 1012.19 664.146L1011.65 748.774C1011.65 750.879 1011.95 759.389 1005.63 759.389C999.314 759.389 843.122 759.743 767.85 759.743C762.69 759.743 762.69 749.736 762.69 744.682C762.69 739.629 762.69 717.311 762.69 634.143C763.216 632.037 765.848 627.826 772.165 627.826C778.481 627.826 924.288 627.826 996.402 627.826H1309.07V672.042H1043.78V706.783H1309.07V744.682H1040.62V781.003H1309.07V817.323H762.69V853.643H1258.54V882.526H762.69V918.971H1258.54V948.391H737.423C731.107 948.391 718.474 944.286 718.474 927.863C718.474 911.439 718.474 703.098 718.474 600.981C719 598.875 721.316 594.664 726.369 594.664C731.423 594.664 1142.21 594.664 1346.97 594.664C1351.18 594.664 1359.6 596.559 1359.6 604.139C1359.6 611.719 1360.66 826.271 1361.18 932.6C1361.18 937.864 1358.66 948.391 1348.55 948.391C1338.44 948.391 1294.86 948.391 1274.33 948.391C1272.75 948.391 1269.59 949.339 1269.59 953.129C1269.59 956.919 1269.59 959.972 1269.59 961.025C1269.59 962.077 1270.54 964.183 1274.33 964.183C1278.12 964.183 1483.89 964.183 1526 964.183" stroke="#353232" stroke-opacity="0.8" stroke-width="6"/>
<circle cx="770.585" cy="554.829" r="19.108" stroke="#353232" stroke-opacity="0.8" stroke-width="6"/>
<circle cx="830.592" cy="554.829" r="19.108" stroke="#353232" stroke-opacity="0.8" stroke-width="6"/>
<circle cx="887.44" cy="554.829" r="19.108" stroke="#353232" stroke-opacity="0.8" stroke-width="6"/>
<path d="M802.523 693.929L838.261 729.667L890.276 676.237L916.814 704.898L984.751 644.037" stroke="#353232" stroke-opacity="0.8" stroke-width="6"/>
</g>
<defs>
<clipPath id="clip0_326_262">
<rect width="1440" height="998" fill="white"/>
</clipPath>
</defs>
</svg>
